PathFileType	4	(X/Y/Z)	/Users/niels/Desktop/University/Third Semester/Perception and Action/Exam/Gymnastics Motion Tracking/Code for Gym Tracking/Analyzed Data/Webcam_Backflip/id6_1_baseline_Sports2D/id6_1_baseline_Sports2D_px_person00.trc
DataRate	CameraRate	NumFrames	NumMarkers	Units	OrigDataRate	OrigDataStartFrame	OrigNumFrames
29.702970297029704	29.702970297029704	11	22	m	29.702970297029704	88	101
Frame#	Time	Hip			RHip			RKnee			RAnkle			RBigToe			RSmallToe			RHeel			LHip			LKnee			LAnkle			LBigToe			LSmallToe			LHeel			Neck			Head			Nose			RShoulder			RElbow			RWrist			LShoulder			LElbow			LWrist		
		X1	Y1	Z1	X2	Y2	Z2	X3	Y3	Z3	X4	Y4	Z4	X5	Y5	Z5	X6	Y6	Z6	X7	Y7	Z7	X8	Y8	Z8	X9	Y9	Z9	X10	Y10	Z10	X11	Y11	Z11	X12	Y12	Z12	X13	Y13	Z13	X14	Y14	Z14	X15	Y15	Z15	X16	Y16	Z16	X17	Y17	Z17	X18	Y18	Z18	X19	Y19	Z19	X20	Y20	Z20	X21	Y21	Z21	X22	Y22	Z22
88	2.9626666666666663	0.9721089636429756	-0.7118384097299808	0.0	0.9283438280849129	-0.7097143095019127	0.0	0.9259967510776207	-0.9664253641017145	0.0	0.9043724488360272	-1.093130765694502	0.0	0.9614970544461571	-1.0901722468701276	0.0	0.9281396094838021	-1.089752339630432	0.0	0.8864598318180563	-1.0905782994878228	0.0	1.0170924924220612	-0.7220727144550717	0.0	0.9872631197169918	-0.9769046611890418	0.0	0.9480174082872352	-1.0865358653025967	0.0	1.0049496560149207	-1.0864667304528248	0.0	0.981603605439199	-1.0854933778819613	0.0	0.9504484885893084	-1.0837784658599117	0.0	0.9854089149684214	-0.39493955262818925	0.0	0.9869211829185438	-0.2652984339438994	0.0	0.9846512381652531	-0.3302731414181884	0.0	0.8930932045934578	-0.42828608062658036	0.0	0.756579832076349	-0.46810198507669154	0.0	0.5976552740433928	-0.48314945562375994	0.0	1.0702863891811203	-0.4577472660479298	0.0	1.1132340458688508	-0.6160772433502111	0.0	1.0828416130706855	-0.537793671132409	0.0
89	2.9963333333333333	0.9717293550510127	-0.7133661835738848	0.0	0.9284138712751372	-0.7105146653153144	0.0	0.9266409880036082	-0.9655369214214463	0.0	0.9031119661447756	-1.092153255015503	0.0	0.961096787671437	-1.0901103731748554	0.0	0.9288980265466823	-1.0895003089355741	0.0	0.8831228893026083	-1.088719073926869	0.0	1.0171612865366657	-0.7225381494119884	0.0	0.9873744638239704	-0.9770801231654846	0.0	0.9475898301411706	-1.084128071902429	0.0	1.0037598938911	-1.0853005228021597	0.0	0.9826898201909682	-1.0840161604570853	0.0	0.9479842894447943	-1.0820278521951172	0.0	0.9840856628381804	-0.3946704136935136	0.0	0.9846891466186152	-0.26551131354346524	0.0	0.9825152488401974	-0.33096193031803406	0.0	0.893430024905496	-0.4288509370877218	0.0	0.758889909491622	-0.48079837435848866	0.0	0.6020197360870636	-0.5076633767557831	0.0	1.0683331578886264	-0.4566395575199111	0.0	1.1125597736413426	-0.6154799820416722	0.0	1.0832389117612231	-0.5378434648136975	0.0
90	3.03	0.9714167636921226	-0.7146158286696346	0.0	0.9283900219863582	-0.7111752178225328	0.0	0.9271528482254267	-0.9649742810724419	0.0	0.9023827024579416	-1.090871304527178	0.0	0.9610053264506536	-1.090061539801574	0.0	0.9293314802210528	-1.089507585734888	0.0	0.8801975746353569	-1.0867951243561027	0.0	1.017017084393819	-0.7228466011345418	0.0	0.9873802766055187	-0.9774535062260696	0.0	0.9470390454952089	-1.0815995715876283	0.0	1.003199394804465	-1.0848130187365077	0.0	0.9842608329353459	-1.0831703063295244	0.0	0.9443286069624343	-1.0801038737235573	0.0	0.9824475265536233	-0.3943858511870456	0.0	0.9824784644741579	-0.2655192318214878	0.0	0.9803633720486834	-0.3315380264890393	0.0	0.8936925698110173	-0.42953017785211756	0.0	0.761928282654088	-0.49325965121076615	0.0	0.6083374404949631	-0.5319477314195326	0.0	1.0660427913633068	-0.45571780178006244	0.0	1.1117735926040924	-0.6145547644203889	0.0	1.0830241383201618	-0.5375065468189759	0.0
91	3.0636666666666663	0.9712068221547904	-0.7154414224373155	0.0	0.9283756971255935	-0.7115454908355477	0.0	0.9275556474876623	-0.9646372545725124	0.0	0.9022972389076089	-1.0892444815031965	0.0	0.9610660188102131	-1.0900312657670606	0.0	0.9295138335628237	-1.0896199416390124	0.0	0.8782692034293607	-1.084783913530044	0.0	1.0166727277761478	-0.7229639518387456	0.0	0.9873782485618451	-0.9776691884856451	0.0	0.9462978007080405	-1.0790415306131218	0.0	1.00304989095099	-1.0847372234440515	0.0	0.9856874752511036	-1.0828182382651388	0.0	0.9397142678807603	-1.0779973723288023	0.0	0.9805794488449118	-0.39401685781041107	0.0	0.980324889981387	-0.2653011508328123	0.0	0.9784104215801089	-0.3317947384241091	0.0	0.8939557540447858	-0.4302921715251769	0.0	0.7658008132671584	-0.5054816348233048	0.0	0.6166228165481724	-0.5559379875180694	0.0	1.063348299504857	-0.45492846801041725	0.0	1.1109374304715822	-0.6132924987034665	0.0	1.0822820562013014	-0.5367436825877094	0.0
92	3.0973333333333333	0.9711490431371052	-0.7157352240555706	0.0	0.9284473875703816	-0.7116020182328772	0.0	0.9278554526991913	-0.964424352291819	0.0	0.9027201486102377	-1.087389575840693	0.0	0.9611731443074358	-1.0900168216272905	0.0	0.9295433295489771	-1.0897453583557006	0.0	0.877391272263403	-1.0827141049021767	0.0	1.0161404017022821	-0.7228811023488995	0.0	0.9873662750137565	-0.9775789494256173	0.0	0.9453464015599934	-1.076664267687348	0.0	1.0031103858128276	-1.0848518332928259	0.0	0.9866695830589451	-1.082765001186169	0.0	0.9342583454929179	-1.0758244394529957	0.0	0.9786100662054971	-0.39362104463034525	0.0	0.9782771014678918	-0.2648908065781322	0.0	0.9768831379840339	-0.33172167610585507	0.0	0.8941808099672617	-0.4311218474879506	0.0	0.7704744855664869	-0.5174281236289313	0.0	0.6267673602172084	-0.5793941233222081	0.0	1.0602619727052784	-0.4542739642390832	0.0	1.109945071488522	-0.6118208853323679	0.0	1.0812951407305451	-0.5356688006507192	0.0
93	3.131	0.9712787431634119	-0.7155111641227287	0.0	0.9286530890829856	-0.7114531745259218	0.0	0.9280458106746248	-0.964403474769717	0.0	0.9033608401705552	-1.0855637585377804	0.0	0.9612705327217651	-1.0900128094214225	0.0	0.9295017672043077	-1.0898423264969215	0.0	0.8772786224613512	-1.080791976160882	0.0	1.0154012019217848	-0.722613329668023	0.0	0.9871831324388757	-0.9773121828711892	0.0	0.944228384946882	-1.0747876838726602	0.0	1.0032412455808606	-1.0850141184258393	0.0	0.9872031929821358	-1.0828494863666935	0.0	0.9279944089450546	-1.0737558875241953	0.0	0.9766631332934077	-0.39332853637954096	0.0	0.9764055287848243	-0.26430215196961526	0.0	0.9759340861708028	-0.3314997667500809	0.0	0.8942513256042236	-0.43207170900380926	0.0	0.7758492782553731	-0.5289961772297985	0.0	0.6385970477726665	-0.6018942761361397	0.0	1.0569382260083602	-0.45380958724067655	0.0	1.1086351883785195	-0.610274004646648	0.0	1.0803469003676025	-0.5345168250605057	0.0
94	3.1646666666666663	0.971532697027278	-0.7149549571149477	0.0	0.9290340886934969	-0.7112804463086428	0.0	0.9282112712004894	-0.9647328949574319	0.0	0.9039219098094544	-1.0840373329087192	0.0	0.9613376241601561	-1.0900141861044756	0.0	0.9294420863556373	-1.0899013869449607	0.0	0.8775406159056727	-1.0792974940731854	0.0	1.0143841330326044	-0.722207532455063	0.0	0.9865604473126773	-0.9771215075815759	0.0	0.9429104330733823	-1.073669612560973	0.0	1.003365843229308	-1.0851522959053057	0.0	0.9874076831875402	-1.0829680274532532	0.0	0.9210183896312704	-1.0718956892735079	0.0	0.9748252713267188	-0.39321004744423155	0.0	0.974788631985079	-0.26352651609123884	0.0	0.9756305130409301	-0.3312854894807028	0.0	0.8941150071828	-0.43315182892215515	0.0	0.7817973211641501	-0.5399998968238533	0.0	0.6518791611172476	-0.6230517805402926	0.0	1.0535720288271828	-0.4535955137740825	0.0	1.1069288472418233	-0.6086583566716981	0.0	1.0795719446185965	-0.5335518494379231	0.0
95	3.1983333333333333	0.9717158675042081	-0.7143499242041585	0.0	0.9296523743320539	-0.71122372686265	0.0	0.9285821306223706	-0.9655079393587047	0.0	0.9042234057147829	-1.0829973697163768	0.0	0.9613741062418375	-1.0900174158631049	0.0	0.9293910293963797	-1.0899288632686335	0.0	0.8778147020997247	-1.07843189966197	0.0	1.0129723736428566	-0.7217220778101021	0.0	0.9852492198371554	-0.9772042141112768	0.0	0.9412659069176749	-1.0733552937050088	0.0	1.0034542366694743	-1.0852432383951864	0.0	0.9874211366809591	-1.083068641820323	0.0	0.9135321848956676	-1.0702449009518586	0.0	0.9731396280303354	-0.3932374612920425	0.0	0.973493990092257	-0.2626072082901592	0.0	0.9759401805288158	-0.33111798806979836	0.0	0.8938476542003044	-0.43419811874903996	0.0	0.7881536141401217	-0.5502023386719292	0.0	0.6662262700339199	-0.6428340623337649	0.0	1.0502273822764567	-0.45361453272742397	0.0	1.1048460995709246	-0.6068490753788507	0.0	1.0788846236583742	-0.532982022291403	0.0
96	3.2319999999999998	0.9716107902229809	-0.7139037999485895	0.0	0.9305752194165878	-0.7112966521813486	0.0	0.9293903838765698	-0.966677005090922	0.0	0.9042705520175982	-1.0825517051536646	0.0	0.9613881091168452	-1.0900205391134414	0.0	0.929357308651262	-1.0899358879490362	0.0	0.877906711497196	-1.0783252613296488	0.0	1.0111166049866784	-0.7211606274511813	0.0	0.9831784933364056	-0.9775565302173964	0.0	0.9392195264931541	-1.0737390883302136	0.0	1.0035038345414184	-1.0852901440176248	0.0	0.9873521001062184	-1.083134708103496	0.0	0.9057553438475463	-1.068747395157887	0.0	0.9716254152710514	-0.3933675139331661	0.0	0.972556713987604	-0.2616872794725997	0.0	0.9767757282769585	-0.331031933859411	0.0	0.8935171164297872	-0.43497867837011706	0.0	0.7947686455208987	-0.5593931297228634	0.0	0.6812583497721263	-0.6615900940739127	0.0	1.0468292177028307	-0.45376672820387665	0.0	1.1023572864260864	-0.6046704999405363	0.0	1.0780209179536118	-0.5329291859233009	0.0
97	3.2656666666666663	0.9711521429153982	-0.7136530994523942	0.0	0.9318182247015042	-0.7114135919101175	0.0	0.9306659263490371	-0.9681365155115368	0.0	0.9042408528115037	-1.082781486757274	0.0	0.9613890543991694	-1.0900227756875163	0.0	0.9293398427250075	-1.089932574854142	0.0	0.8778509125725481	-1.0790618712618147	0.0	1.0089654254868066	-0.7204542062840528	0.0	0.9804914856389562	-0.9780409510844289	0.0	0.9367371744405721	-1.0747604006050642	0.0	1.003524035287155	-1.0853062153363462	0.0	0.9872676391595658	-1.0831686871339448	0.0	0.8978498380759489	-1.0673376960758925	0.0	0.9702946914647262	-0.3935964406368659	0.0	0.9719477282027684	-0.26095894451867296	0.0	0.9781071314237406	-0.33111943119477893	0.0	0.8930335478102918	-0.43541619265480297	0.0	0.8015872007561659	-0.5674460292487628	0.0	0.6969510890891233	-0.6797141357581008	0.0	1.043328687106675	-0.4539520117715816	0.0	1.0992436766255458	-0.6020529738214833	0.0	1.0767310398238266	-0.5333994244547696	0.0
98	3.2993333333333332	0.9704553486817636	-0.7135206108695678	0.0	0.933347025317939	-0.711476820268182	0.0	0.9321912885883437	-0.9699036708359806	0.0	0.9043466586619263	-1.0837866050861942	0.0	0.9613843547431982	-1.0900240428005636	0.0	0.9293337989942788	-1.0899258884745442	0.0	0.8777391971560127	-1.080666818733306	0.0	1.0067815498720256	-0.7195470945667534	0.0	0.9774184157984572	-0.9786373108331445	0.0	0.933784962365569	-1.076492562142908	0.0	1.003526651087294	-1.0853052226542863	0.0	0.9871996001760117	-1.083180253209982	0.0	0.8899011675116023	-1.0659626055262204	0.0	0.9691155348732317	-0.3938969859467835	0.0	0.971548120740007	-0.260575444829436	0.0	0.9799516516149814	-0.33144365185197733	0.0	0.8921909027534359	-0.4356497712797095	0.0	0.8086446887446098	-0.5743677459238483	0.0	0.7135933779893537	-0.6973668776195925	0.0	1.0397696253400754	-0.45410888022606627	0.0	1.0952044048919123	-0.5991861763619274	0.0	1.0749581599641054	-0.5342228305684923	0.0
